<svg width="368" height="172" viewBox="0 0 368 172" fill="none" xmlns="http://www.w3.org/2000/svg">
<g clip-path="url(#clip0_1665_589)">
<path d="M11.0733 49.508C13.2003 49.4816 15.3198 49.7651 17.3652 50.3496C21.9166 51.7822 24.4774 54.948 25.3676 59.5364C25.5977 60.7085 25.6677 61.9107 25.8078 63.0928C26.0778 62.1812 26.1579 61.2295 26.4579 60.3178C27.9084 55.8697 32.5898 52.5636 36.8311 52.8742C37.3612 52.8742 37.8914 52.8742 38.4216 52.8742C38.0285 52.6904 37.5899 52.6277 37.1612 52.6938C35.965 52.6906 34.7698 52.6271 33.5801 52.5035C31.0825 52.3099 28.716 51.3065 26.8388 49.6452C24.9617 47.9839 23.6762 45.7553 23.177 43.2967C22.6436 40.857 22.4985 38.3482 22.7468 35.8631C23.297 29.4114 26.628 25.0634 33.23 24.0215C35.0706 23.731 36.9511 23.8512 38.7917 23.5807C41.0925 23.2391 43.2323 22.1956 44.9196 20.5922C46.6069 18.9888 47.7598 16.9035 48.2212 14.6203C48.6826 12.337 48.4302 9.96685 47.4982 7.83251C46.5662 5.69816 45 3.90339 43.0129 2.6926C41.6126 1.94904 40.1235 1.38684 38.5816 1.01953H37.7814C37.5422 1.17197 37.2646 1.25296 36.9811 1.25296C36.6976 1.25296 36.42 1.17197 36.1808 1.01953H35.5907C34.1242 1.36406 32.7038 1.88197 31.3594 2.56236C29.6678 3.55105 28.2648 4.96698 27.2906 6.66873C26.3164 8.37047 25.8051 10.2984 25.8078 12.2601C25.7377 15.536 25.3576 18.7118 23.5271 21.527C21.4665 24.7028 18.3455 26.0452 14.7644 26.6163C12.5638 26.9669 10.3031 26.6163 8.14246 27.3075C6.14675 27.8775 4.34831 28.9914 2.94769 30.525C1.54707 32.0587 0.599321 33.9518 0.210085 35.9934C0.210085 36.1637 0.160048 36.324 0 36.4242V36.8249C0.324956 37.6627 0.324956 38.5919 0 39.4296V40.0307C0.270081 40.8022 0.510171 41.5836 0.800258 42.355C1.61248 44.4324 3.02254 46.2214 4.85155 47.4949C6.68056 48.7684 8.84607 49.4691 11.0733 49.508V49.508Z" fill="#79CDDB"/>
<path d="M89.8672 75.0352C89.8672 75.0352 89.8672 75.0952 89.9272 75.0352H89.8472H89.8672Z" fill="#FEFEFE"/>
<path d="M9.283 101.004C11.2336 101.394 13.2842 101.204 15.2248 101.544C18.4858 102.116 21.3166 103.408 23.2872 106.183C25.1177 108.758 25.6279 111.723 25.808 114.779H25.958C25.958 110.351 29.6591 105.933 34.2905 104.76C35.5039 104.566 36.734 104.495 37.9616 104.55V104.39C35.4696 104.457 32.9831 104.119 30.5994 103.388C28.9377 102.881 27.4279 101.968 26.2056 100.732C24.9834 99.4953 24.0871 97.9742 23.5973 96.3049C22.1362 91.8758 22.2279 87.0799 23.8574 82.7101C25.4078 78.5625 28.6789 76.5388 32.8601 75.6973C33.7145 75.6445 34.5619 75.5103 35.3908 75.2966C33.2693 74.8529 31.2922 73.8852 29.6391 72.4814C27.5754 70.6917 26.264 68.1865 25.968 65.4686C25.9327 65.3093 25.879 65.1547 25.808 65.0078C25.6679 66.1599 25.5879 67.3321 25.3578 68.4641C24.4976 72.8021 22.1569 75.9478 17.9056 77.4806C15.855 78.179 13.6994 78.5179 11.5337 78.4824C9.01628 78.4174 6.54974 79.1991 4.528 80.7027C2.50626 82.2064 1.04596 84.3452 0.380336 86.7775C0.270303 87.1482 0.320333 87.579 -0.00976562 87.8795V88.0699C0.137865 88.2352 0.21946 88.4492 0.21946 88.671C0.21946 88.8928 0.137865 89.1068 -0.00976562 89.2721V91.7266C0.150282 91.8268 0.160277 91.987 0.200289 92.1573C1.40065 96.9962 4.39153 100.012 9.283 101.004Z" fill="#95D7D2"/>
<path d="M99.4701 119.267C99.5801 118.956 99.4701 118.495 99.9902 118.385V117.383C99.8377 117.181 99.7551 116.935 99.7551 116.682C99.7551 116.429 99.8377 116.183 99.9902 115.981V115.38C99.8377 115.178 99.7551 114.931 99.7551 114.678C99.7551 114.425 99.8377 114.179 99.9902 113.977V113.376C99.6201 113.156 99.6501 112.755 99.5301 112.374C98.9249 110.312 97.7351 108.471 96.105 107.073C94.475 105.675 92.4748 104.781 90.3473 104.5C88.3467 104.169 86.3461 104.37 84.3455 103.959C79.5041 102.957 76.2631 100.232 74.9427 95.3931C74.6226 94.251 74.4825 93.0589 74.2625 91.8867C73.7723 92.3977 73.8024 93.109 73.5623 93.7201C72.9185 95.5497 71.8063 97.178 70.337 98.4421C68.8677 99.7062 67.0928 100.562 65.1898 100.923L64.1895 101.144C65.1397 101.264 66.0901 101.354 67.0303 101.524C71.1416 102.276 74.3425 104.249 76.083 108.227C77.0189 110.587 77.4779 113.111 77.4335 115.65C77.4049 117.7 77.9392 119.719 78.9783 121.486C80.0173 123.253 81.521 124.699 83.3252 125.668C84.3255 126.239 85.4359 126.41 86.4162 126.971H90.8075C92.3758 126.536 93.8673 125.86 95.2288 124.967C97.201 123.556 98.6838 121.563 99.4701 119.267V119.267ZM77.7336 116.712H77.6635V113.586H77.7336V116.712Z" fill="#A3D385"/>
<path d="M44.7437 124.115C46.0951 122.875 47.1328 121.33 47.7711 119.609C48.4094 117.888 48.63 116.04 48.4148 114.217C48.055 112.361 47.3123 110.6 46.2341 109.047C45.2855 107.719 44.0479 106.624 42.6149 105.845C41.1818 105.065 39.5906 104.622 37.9616 104.549V104.549C36.734 104.494 35.5039 104.565 34.2905 104.76C29.6591 105.922 25.968 110.34 25.958 114.778C25.958 115.599 25.958 116.421 25.958 117.252C26.088 121.54 30.2793 126.089 34.7706 126.81C35.1108 126.81 35.4909 126.69 35.771 127H39.172C39.2718 126.923 39.3832 126.862 39.5021 126.82C41.4678 126.428 43.2841 125.491 44.7437 124.115V124.115Z" fill="#78C9A9"/>
<path d="M99.6401 61.1298C99.307 59.7982 98.6968 58.5521 97.8496 57.4731C97.2689 56.5264 96.491 55.7165 95.5689 55.0988V55.0988L94.5686 54.4475C94.3492 54.2313 94.0707 54.0849 93.7683 54.0268V54.0268L93.5483 53.8865L92.9881 53.6662C92.7153 53.4162 92.3575 53.28 91.9878 53.2855C91.687 53.1056 91.336 53.0282 90.9875 53.065V53.065C90.8666 52.9765 90.7283 52.9147 90.5817 52.8836C90.4351 52.8525 90.2836 52.8529 90.1372 52.8847C89.1538 52.6244 88.1197 52.6244 87.1363 52.8847C86.3565 52.8984 85.5902 53.0903 84.8957 53.4457C84.7911 53.4371 84.6858 53.4514 84.5874 53.4878C84.4889 53.5241 84.3995 53.5816 84.3255 53.6561L83.8954 53.8565C83.6031 53.8995 83.3328 54.0367 83.1252 54.2472V54.2472L82.725 54.4776C82.5607 54.512 82.405 54.5795 82.2674 54.6759C82.1299 54.7724 82.0133 54.8958 81.9248 55.0387V55.0387L81.5547 55.2891C80.7385 55.8601 80.0559 56.6018 79.5541 57.4631C78.9613 58.0833 78.5376 58.8457 78.3237 59.6771L78.1537 60.0679C77.9385 60.4009 77.7985 60.777 77.7436 61.1698C77.0934 63.975 77.5035 66.9003 76.7433 69.6954C76.5189 70.0554 76.385 70.4645 76.3531 70.8876V70.8876L75.933 71.8894C75.7298 72.1024 75.5941 72.3707 75.5429 72.6608C75.1908 73.0091 74.9178 73.4295 74.7427 73.8931C73.8774 74.82 72.9409 75.6775 71.9418 76.4578L71.5317 76.6882L69.351 77.69C66.1675 78.5678 62.8386 78.786 59.5681 78.3312C54.8066 77.68 51.1856 75.486 49.455 70.7473C48.9479 69.1134 48.5897 67.4368 48.3847 65.7382C47.9546 66.74 47.8246 67.8921 47.3244 68.914C46.5839 70.4812 45.4948 71.8578 44.1405 72.938C42.7863 74.0181 41.203 74.7733 39.5121 75.1454L38.5718 75.3758C40.0522 75.6763 41.5727 75.7364 43.0331 76.1872C48.1147 77.7801 50.6154 81.4168 51.3556 86.4961C51.4757 87.3176 51.5157 88.1491 51.5857 88.9706C51.8132 87.4041 52.2929 85.885 53.0061 84.4724C53.8447 82.8797 55.0689 81.5233 56.5666 80.5274C58.0643 79.5315 59.7877 78.9279 61.5787 78.772H63.9694C67.2604 78.8521 69.7111 80.5251 71.7617 82.9396C72.5848 84.0587 73.2575 85.2814 73.7623 86.5762C73.7424 87.0791 73.8941 87.5738 74.1924 87.9788C74.2072 87.9298 74.2072 87.8775 74.1924 87.8285V87.8285C74.2563 87.7157 74.3035 87.5942 74.3325 87.4678C74.5063 84.9562 75.2891 82.525 76.6132 80.3849L76.9633 79.9541C77.0762 79.8987 77.1753 79.8186 77.2532 79.7198C77.3311 79.621 77.3859 79.5059 77.4134 79.3831L78.9739 77.9806C79.6092 77.5293 80.278 77.1273 80.9745 76.7783L81.5347 76.5679L81.9648 76.3776L82.735 76.1572L83.9754 75.7865C84.4408 75.8204 84.9074 75.7414 85.3358 75.5561V75.5561C85.9524 75.6382 86.5797 75.573 87.1664 75.3657H88.5268C89.1991 75.4673 89.8861 75.402 90.5274 75.1754H90.6074H90.6974C91.9088 75.0444 93.0733 74.6328 94.0984 73.9732L94.6986 73.6025L94.8987 73.4422C95.0219 73.4164 95.1387 73.3659 95.2419 73.2935C95.345 73.2212 95.4325 73.1287 95.4989 73.0215L95.979 72.6909C96.5967 72.2965 97.1085 71.7564 97.4694 71.118V71.118L97.6395 70.9176C97.8542 70.7795 98.0081 70.5645 98.0697 70.3165V70.3165C98.9665 69.1456 99.5546 67.7676 99.7801 66.3092L100 66.1189V61.6708C99.9021 61.6151 99.8184 61.5372 99.7558 61.4432C99.6933 61.3493 99.6536 61.2419 99.6401 61.1298V61.1298ZM89.9772 75.0853C89.9772 75.0853 89.9272 75.0853 89.9172 75.0853H89.9972H89.9772ZM90.8975 53.1853H90.8375H90.9275H90.8975Z" fill="#9CD6B3"/>
<path d="M0 36.8555V39.4602C0.324858 38.6224 0.324858 37.6932 0 36.8555V36.8555Z" fill="#8CD1DD"/>
<path d="M37.791 1H36.1909C36.43 1.15216 36.7076 1.23297 36.991 1.23297C37.2744 1.23297 37.5519 1.15216 37.791 1Z" fill="#95CCD5"/>
<path d="M99.9801 115.379V113.977C99.8276 114.178 99.7451 114.425 99.7451 114.678C99.7451 114.931 99.8276 115.177 99.9801 115.379Z" fill="#ADD395"/>
<path d="M99.9801 117.383V115.98C99.8276 116.182 99.7451 116.429 99.7451 116.682C99.7451 116.935 99.8276 117.181 99.9801 117.383V117.383Z" fill="#ADD395"/>
<path d="M0 88.1289V89.3311C0.147586 89.1658 0.229187 88.9518 0.229187 88.73C0.229187 88.5083 0.147586 88.2942 0 88.1289V88.1289Z" fill="#B2D0CE"/>
<path d="M34.7905 126.789C34.8054 126.852 34.8054 126.917 34.7905 126.979H35.7905C35.5105 126.679 35.1305 126.789 34.7905 126.789Z" fill="#A7CBBE"/>
<path d="M38.5714 75.3349L39.5117 75.1044C41.2026 74.7324 42.786 73.9773 44.1402 72.8971C45.4944 71.8169 46.5836 70.4404 47.3241 68.8731C47.8242 67.8713 47.9543 66.7292 48.3844 65.6973C48.3844 64.7957 48.3844 63.884 48.3844 62.9924C47.9543 57.7228 43.3829 53.0943 38.4414 52.8639C37.9112 52.8639 37.3811 52.924 36.851 52.8639C32.6097 52.5533 27.9283 55.8694 26.4778 60.3075C26.1777 61.2191 26.0977 62.1708 25.8276 63.0825V65.0862C25.8987 65.233 25.9524 65.3877 25.9877 65.547C26.2837 68.2649 27.5951 70.7701 29.6588 72.5598C31.3119 73.9636 33.289 74.9313 35.4105 75.375H38.5815L38.5714 75.3349Z" fill="#4ABAC3"/>
<path d="M74.1725 88.941V87.9392C73.8741 87.5342 73.7224 87.0395 73.7424 86.5366C73.2375 85.2419 72.5649 84.0192 71.7418 82.9C69.7412 80.4856 67.2404 78.8126 63.9494 78.7324C63.1842 79.0329 62.3339 79.0329 61.5687 78.7324C59.7777 78.8883 58.0543 79.4919 56.5566 80.4878C55.0589 81.4837 53.8347 82.8401 52.9962 84.4328C52.2829 85.8454 51.8032 87.3646 51.5757 88.931V88.931V90.7243C51.7809 91.8887 52.0684 93.037 52.4359 94.1605C53.204 96.0715 54.4798 97.7353 56.125 98.9716C57.7702 100.208 59.7221 100.969 61.7687 101.173V101.173C62.146 101.009 62.5528 100.925 62.9641 100.925C63.3754 100.925 63.7822 101.009 64.1595 101.173V101.173L65.1598 100.953C67.0628 100.591 68.8377 99.7358 70.307 98.4718C71.7763 97.2077 72.8885 95.5794 73.5323 93.7498C73.7724 93.1387 73.7424 92.4274 74.2325 91.9165C74.2325 91.5157 74.2325 91.125 74.2325 90.7343C74.0769 90.4631 73.9901 90.1578 73.9796 89.8452C73.9692 89.5325 74.0354 89.2221 74.1725 88.941V88.941Z" fill="#7CC688"/>
<path d="M74.1921 90.7232C74.1921 90.1221 74.1921 89.521 74.1921 88.9199C74.0441 89.1973 73.9668 89.507 73.9668 89.8215C73.9668 90.1361 74.0441 90.4458 74.1921 90.7232V90.7232Z" fill="#7DB787"/>
<path d="M52.4758 94.1804C52.1083 93.0568 51.8208 91.9085 51.6156 90.7441C51.5914 93.0059 51.14 95.2425 50.2852 97.3361C48.4146 101.624 44.8736 103.527 40.4823 104.169C39.662 104.289 38.8317 104.319 38.0015 104.389V104.549C39.6253 104.627 41.2106 105.072 42.6381 105.851C44.0657 106.63 45.2985 107.723 46.244 109.048C47.3222 110.6 48.0649 112.361 48.4246 114.217V114.217C48.5447 113.365 48.6447 112.514 48.7947 111.672C49.795 106.112 52.7959 102.966 58.2876 101.654C59.4579 101.384 60.6583 101.474 61.8186 101.163C59.7735 100.963 57.8219 100.207 56.1751 98.9765C54.5283 97.7456 53.249 96.0871 52.4758 94.1804V94.1804Z" fill="#A3D386"/>
<path d="M61.7983 101.162H64.1883C63.8112 100.999 63.4045 100.914 62.9933 100.914C62.5822 100.914 62.1755 100.999 61.7983 101.162V101.162Z" fill="#74C37F"/>
<path d="M25.8079 114.768C25.699 115.592 25.7568 116.431 25.9778 117.232V117.232C25.9778 116.401 25.9778 115.579 25.9778 114.758L25.8079 114.768Z" fill="#83B7A4"/>
<path d="M77.6631 116.772H77.7331V113.656H77.6631V116.772Z" fill="#A3D485"/>
<path d="M63.9684 78.7012H61.5884C62.3534 79.0011 63.2034 79.0011 63.9684 78.7012V78.7012Z" fill="#72C380"/>
</g>
<path d="M125.336 95.552V14.36H140.976V95.552C140.976 96.912 141.293 98.2267 141.928 99.496C142.653 100.675 144.013 101.264 146.008 101.264H148.184V115.68H144.376C139.208 115.68 135.264 114.683 132.544 112.688C129.824 110.693 127.92 108.155 126.832 105.072C125.835 101.989 125.336 98.816 125.336 95.552ZM197.058 59.24C194.791 59.24 192.207 59.784 189.306 60.872C186.405 61.96 182.959 64.0907 178.97 67.264V115H163.33V46.048H178.154V55.296C182.415 51.5787 186.45 48.904 190.258 47.272C194.066 45.5493 197.919 44.688 201.818 44.688C208.437 44.688 213.469 46.8187 216.914 51.08C220.359 55.2507 222.082 61.144 222.082 68.76V115H206.442V70.664C206.442 63.048 203.314 59.24 197.058 59.24ZM279.2 115L264.92 91.88L250.912 115H234.592L256.896 79.64L236.088 46.048H252.952L265.736 66.584L278.112 46.048H294.432L273.624 78.96L296.064 115H279.2ZM345.872 115L331.592 91.88L317.584 115H301.264L323.568 79.64L302.76 46.048H319.624L332.408 66.584L344.784 46.048H361.104L340.296 78.96L362.736 115H345.872Z" fill="black"/>
<path d="M20.9204 155.336C20.9204 156.822 20.7358 158.175 20.3667 159.397C19.9976 160.61 19.4351 161.656 18.6792 162.535C17.9321 163.414 16.9829 164.09 15.8315 164.565C14.6802 165.031 13.3179 165.264 11.7446 165.264C10.1714 165.264 8.80908 165.031 7.65771 164.565C6.50635 164.09 5.55273 163.414 4.79688 162.535C4.0498 161.656 3.4917 160.605 3.12256 159.384C2.75342 158.162 2.56885 156.804 2.56885 155.31C2.56885 153.315 2.89404 151.579 3.54443 150.103C4.20361 148.617 5.21436 147.466 6.57666 146.648C7.93896 145.831 9.67041 145.422 11.771 145.422C13.8628 145.422 15.5811 145.831 16.9258 146.648C18.2793 147.466 19.2812 148.617 19.9316 150.103C20.5908 151.588 20.9204 153.333 20.9204 155.336ZM6.85352 155.336C6.85352 156.681 7.02051 157.841 7.35449 158.817C7.69727 159.784 8.229 160.531 8.94971 161.058C9.67041 161.577 10.6021 161.836 11.7446 161.836C12.9048 161.836 13.8452 161.577 14.5659 161.058C15.2866 160.531 15.8096 159.784 16.1348 158.817C16.4688 157.841 16.6357 156.681 16.6357 155.336C16.6357 153.315 16.2578 151.724 15.502 150.564C14.7461 149.404 13.5024 148.824 11.771 148.824C10.6196 148.824 9.6792 149.087 8.94971 149.615C8.229 150.133 7.69727 150.88 7.35449 151.856C7.02051 152.823 6.85352 153.983 6.85352 155.336ZM33.0688 149.984C34.73 149.984 36.0703 150.63 37.0898 151.922C38.1181 153.214 38.6323 155.108 38.6323 157.604C38.6323 159.274 38.3906 160.68 37.9072 161.823C37.4238 162.957 36.7558 163.813 35.9033 164.394C35.0508 164.974 34.0708 165.264 32.9634 165.264C32.2514 165.264 31.6406 165.176 31.1308 165C30.6211 164.815 30.186 164.583 29.8257 164.301C29.4653 164.011 29.1533 163.704 28.8896 163.378H28.6787C28.749 163.73 28.8017 164.09 28.8369 164.459C28.8721 164.829 28.8896 165.189 28.8896 165.541V171.486H24.8686V150.261H28.1382L28.7051 152.172H28.8896C29.1533 151.777 29.4741 151.412 29.852 151.078C30.23 150.744 30.6826 150.48 31.2099 150.287C31.7461 150.085 32.3657 149.984 33.0688 149.984ZM31.7768 153.201C31.0737 153.201 30.5156 153.346 30.1025 153.636C29.6894 153.926 29.3862 154.361 29.1929 154.941C29.0083 155.521 28.9072 156.255 28.8896 157.143V157.578C28.8896 158.527 28.9775 159.331 29.1533 159.99C29.3379 160.649 29.6411 161.15 30.063 161.493C30.4936 161.836 31.0825 162.007 31.8296 162.007C32.4448 162.007 32.9502 161.836 33.3457 161.493C33.7412 161.15 34.0356 160.649 34.229 159.99C34.4311 159.322 34.5322 158.509 34.5322 157.551C34.5322 156.11 34.3081 155.024 33.8598 154.295C33.4116 153.565 32.7173 153.201 31.7768 153.201ZM48.434 162.06C48.8735 162.06 49.2998 162.016 49.7129 161.928C50.1347 161.84 50.5522 161.73 50.9653 161.599V164.591C50.5346 164.785 49.9985 164.943 49.3569 165.066C48.7241 165.198 48.0297 165.264 47.2739 165.264C46.395 165.264 45.604 165.123 44.9008 164.842C44.2065 164.552 43.6572 164.055 43.2529 163.352C42.8574 162.64 42.6596 161.651 42.6596 160.386V153.28H40.7348V151.579L42.9497 150.234L44.1098 147.123H46.6806V150.261H50.8071V153.28H46.6806V160.386C46.6806 160.948 46.8388 161.37 47.1552 161.651C47.4804 161.924 47.9067 162.06 48.434 162.06ZM58.249 150.261V165H54.228V150.261H58.249ZM56.2451 144.486C56.8427 144.486 57.3569 144.627 57.7875 144.908C58.2182 145.181 58.4335 145.695 58.4335 146.451C58.4335 147.198 58.2182 147.716 57.7875 148.006C57.3569 148.288 56.8427 148.428 56.2451 148.428C55.6386 148.428 55.1201 148.288 54.6894 148.006C54.2675 147.716 54.0566 147.198 54.0566 146.451C54.0566 145.695 54.2675 145.181 54.6894 144.908C55.1201 144.627 55.6386 144.486 56.2451 144.486ZM76.1454 157.604C76.1454 158.834 75.9784 159.924 75.6445 160.874C75.3193 161.823 74.8403 162.627 74.2074 163.286C73.5834 163.937 72.8276 164.429 71.9399 164.763C71.061 165.097 70.0678 165.264 68.9604 165.264C67.9233 165.264 66.9697 165.097 66.0995 164.763C65.2382 164.429 64.4867 163.937 63.8451 163.286C63.2123 162.627 62.7201 161.823 62.3686 160.874C62.0258 159.924 61.8544 158.834 61.8544 157.604C61.8544 155.969 62.1445 154.585 62.7245 153.451C63.3046 152.317 64.1308 151.456 65.203 150.867C66.2753 150.278 67.5541 149.984 69.0395 149.984C70.4194 149.984 71.641 150.278 72.7045 150.867C73.7768 151.456 74.6161 152.317 75.2226 153.451C75.8378 154.585 76.1454 155.969 76.1454 157.604ZM65.9545 157.604C65.9545 158.571 66.06 159.384 66.2709 160.043C66.4819 160.702 66.8114 161.199 67.2597 161.533C67.7079 161.867 68.2924 162.034 69.0131 162.034C69.725 162.034 70.3007 161.867 70.7402 161.533C71.1884 161.199 71.5136 160.702 71.7157 160.043C71.9267 159.384 72.0322 158.571 72.0322 157.604C72.0322 156.628 71.9267 155.82 71.7157 155.178C71.5136 154.528 71.1884 154.04 70.7402 153.715C70.2919 153.39 69.7074 153.227 68.9867 153.227C67.9233 153.227 67.1498 153.592 66.6664 154.321C66.1918 155.051 65.9545 156.145 65.9545 157.604ZM88.1093 149.984C89.6825 149.984 90.9481 150.415 91.9062 151.276C92.8642 152.128 93.3432 153.5 93.3432 155.389V165H89.3222V156.391C89.3222 155.336 89.1288 154.541 88.7421 154.005C88.3642 153.469 87.7665 153.201 86.9491 153.201C85.7187 153.201 84.8793 153.618 84.4311 154.453C83.9828 155.288 83.7587 156.492 83.7587 158.065V165H79.7377V150.261H82.8095L83.35 152.146H83.5741C83.8905 151.636 84.2816 151.223 84.7475 150.907C85.2221 150.59 85.745 150.357 86.3163 150.208C86.8964 150.059 87.494 149.984 88.1093 149.984ZM108.036 160.623C108.036 161.625 107.799 162.473 107.324 163.167C106.858 163.853 106.16 164.376 105.228 164.736C104.296 165.088 103.136 165.264 101.747 165.264C100.719 165.264 99.8358 165.198 99.0975 165.066C98.368 164.934 97.6298 164.714 96.8827 164.407V161.084C97.6825 161.445 98.5394 161.744 99.4535 161.981C100.376 162.209 101.185 162.324 101.879 162.324C102.662 162.324 103.22 162.209 103.554 161.981C103.896 161.744 104.068 161.436 104.068 161.058C104.068 160.812 103.997 160.592 103.857 160.399C103.725 160.197 103.435 159.973 102.987 159.727C102.538 159.472 101.835 159.142 100.877 158.738C99.9545 158.351 99.1942 157.96 98.5966 157.564C98.0077 157.169 97.5682 156.703 97.2782 156.167C96.997 155.622 96.8563 154.932 96.8563 154.097C96.8563 152.735 97.3837 151.711 98.4384 151.025C99.5018 150.331 100.921 149.984 102.697 149.984C103.611 149.984 104.481 150.076 105.307 150.261C106.142 150.445 106.999 150.74 107.878 151.144L106.665 154.044C105.935 153.728 105.245 153.469 104.595 153.267C103.953 153.064 103.299 152.963 102.631 152.963C102.042 152.963 101.598 153.042 101.299 153.201C101 153.359 100.851 153.601 100.851 153.926C100.851 154.163 100.926 154.374 101.075 154.559C101.233 154.743 101.532 154.95 101.972 155.178C102.42 155.398 103.075 155.684 103.936 156.035C104.771 156.378 105.496 156.738 106.111 157.116C106.726 157.485 107.201 157.947 107.535 158.5C107.869 159.045 108.036 159.753 108.036 160.623ZM124.765 149.958C126.743 149.958 128.259 150.388 129.314 151.25C130.368 152.111 130.896 153.42 130.896 155.178V165H128.088L127.31 162.996H127.204C126.783 163.523 126.352 163.954 125.912 164.288C125.473 164.622 124.968 164.868 124.396 165.026C123.825 165.185 123.131 165.264 122.313 165.264C121.443 165.264 120.661 165.097 119.967 164.763C119.281 164.429 118.741 163.919 118.345 163.233C117.95 162.539 117.752 161.66 117.752 160.597C117.752 159.032 118.301 157.881 119.4 157.143C120.498 156.396 122.146 155.982 124.344 155.903L126.901 155.824V155.178C126.901 154.405 126.699 153.838 126.295 153.478C125.89 153.117 125.328 152.937 124.607 152.937C123.895 152.937 123.197 153.038 122.511 153.24C121.826 153.442 121.14 153.697 120.454 154.005L119.123 151.289C119.905 150.876 120.78 150.551 121.746 150.313C122.722 150.076 123.728 149.958 124.765 149.958ZM126.901 158.171L125.346 158.224C124.045 158.259 123.139 158.492 122.63 158.922C122.129 159.353 121.878 159.92 121.878 160.623C121.878 161.238 122.058 161.678 122.419 161.941C122.779 162.196 123.249 162.324 123.829 162.324C124.691 162.324 125.416 162.069 126.005 161.559C126.602 161.049 126.901 160.324 126.901 159.384V158.171ZM143.69 149.984C145.263 149.984 146.529 150.415 147.487 151.276C148.445 152.128 148.924 153.5 148.924 155.389V165H144.903V156.391C144.903 155.336 144.71 154.541 144.323 154.005C143.945 153.469 143.347 153.201 142.53 153.201C141.3 153.201 140.46 153.618 140.012 154.453C139.564 155.288 139.34 156.492 139.34 158.065V165H135.319V150.261H138.39L138.931 152.146H139.155C139.471 151.636 139.863 151.223 140.328 150.907C140.803 150.59 141.326 150.357 141.897 150.208C142.477 150.059 143.075 149.984 143.69 149.984ZM158.001 165.264C156.357 165.264 155.017 164.622 153.98 163.339C152.951 162.047 152.437 160.153 152.437 157.657C152.437 155.134 152.96 153.227 154.006 151.935C155.052 150.634 156.419 149.984 158.106 149.984C158.809 149.984 159.429 150.081 159.965 150.274C160.501 150.467 160.963 150.727 161.349 151.052C161.745 151.377 162.079 151.742 162.351 152.146H162.483C162.43 151.865 162.365 151.452 162.285 150.907C162.215 150.353 162.18 149.786 162.18 149.206V144.486H166.214V165H163.129L162.351 163.088H162.18C161.925 163.493 161.604 163.862 161.218 164.196C160.84 164.521 160.387 164.78 159.86 164.974C159.332 165.167 158.713 165.264 158.001 165.264ZM159.411 162.06C160.51 162.06 161.283 161.735 161.732 161.084C162.189 160.425 162.43 159.437 162.457 158.118V157.683C162.457 156.25 162.237 155.156 161.798 154.4C161.358 153.636 160.541 153.253 159.346 153.253C158.458 153.253 157.763 153.636 157.262 154.4C156.762 155.165 156.511 156.268 156.511 157.709C156.511 159.151 156.762 160.236 157.262 160.966C157.772 161.695 158.489 162.06 159.411 162.06ZM195.784 155.336C195.784 156.822 195.6 158.175 195.231 159.397C194.862 160.61 194.299 161.656 193.543 162.535C192.796 163.414 191.847 164.09 190.696 164.565C189.544 165.031 188.182 165.264 186.609 165.264C185.035 165.264 183.673 165.031 182.522 164.565C181.37 164.09 180.417 163.414 179.661 162.535C178.914 161.656 178.356 160.605 177.987 159.384C177.617 158.162 177.433 156.804 177.433 155.31C177.433 153.315 177.758 151.579 178.408 150.103C179.068 148.617 180.078 147.466 181.441 146.648C182.803 145.831 184.534 145.422 186.635 145.422C188.727 145.422 190.445 145.831 191.79 146.648C193.143 147.466 194.145 148.617 194.796 150.103C195.455 151.588 195.784 153.333 195.784 155.336ZM181.718 155.336C181.718 156.681 181.885 157.841 182.219 158.817C182.561 159.784 183.093 160.531 183.814 161.058C184.534 161.577 185.466 161.836 186.609 161.836C187.769 161.836 188.709 161.577 189.43 161.058C190.151 160.531 190.674 159.784 190.999 158.817C191.333 157.841 191.5 156.681 191.5 155.336C191.5 153.315 191.122 151.724 190.366 150.564C189.61 149.404 188.366 148.824 186.635 148.824C185.484 148.824 184.543 149.087 183.814 149.615C183.093 150.133 182.561 150.88 182.219 151.856C181.885 152.823 181.718 153.983 181.718 155.336ZM207.933 149.984C209.594 149.984 210.934 150.63 211.954 151.922C212.982 153.214 213.496 155.108 213.496 157.604C213.496 159.274 213.255 160.68 212.771 161.823C212.288 162.957 211.62 163.813 210.767 164.394C209.915 164.974 208.935 165.264 207.827 165.264C207.115 165.264 206.505 165.176 205.995 165C205.485 164.815 205.05 164.583 204.69 164.301C204.329 164.011 204.017 163.704 203.754 163.378H203.543C203.613 163.73 203.666 164.09 203.701 164.459C203.736 164.829 203.754 165.189 203.754 165.541V171.486H199.733V150.261H203.002L203.569 152.172H203.754C204.017 151.777 204.338 151.412 204.716 151.078C205.094 150.744 205.547 150.48 206.074 150.287C206.61 150.085 207.23 149.984 207.933 149.984ZM206.641 153.201C205.938 153.201 205.38 153.346 204.967 153.636C204.553 153.926 204.25 154.361 204.057 154.941C203.872 155.521 203.771 156.255 203.754 157.143V157.578C203.754 158.527 203.842 159.331 204.017 159.99C204.202 160.649 204.505 161.15 204.927 161.493C205.358 161.836 205.947 162.007 206.694 162.007C207.309 162.007 207.814 161.836 208.21 161.493C208.605 161.15 208.9 160.649 209.093 159.99C209.295 159.322 209.396 158.509 209.396 157.551C209.396 156.11 209.172 155.024 208.724 154.295C208.276 153.565 207.581 153.201 206.641 153.201ZM225.289 149.984C226.95 149.984 228.29 150.63 229.31 151.922C230.338 153.214 230.852 155.108 230.852 157.604C230.852 159.274 230.611 160.68 230.127 161.823C229.644 162.957 228.976 163.813 228.123 164.394C227.271 164.974 226.291 165.264 225.183 165.264C224.471 165.264 223.861 165.176 223.351 165C222.841 164.815 222.406 164.583 222.046 164.301C221.685 164.011 221.373 163.704 221.11 163.378H220.899C220.969 163.73 221.022 164.09 221.057 164.459C221.092 164.829 221.11 165.189 221.11 165.541V171.486H217.089V150.261H220.358L220.925 152.172H221.11C221.373 151.777 221.694 151.412 222.072 151.078C222.45 150.744 222.903 150.48 223.43 150.287C223.966 150.085 224.586 149.984 225.289 149.984ZM223.997 153.201C223.294 153.201 222.736 153.346 222.322 153.636C221.909 153.926 221.606 154.361 221.413 154.941C221.228 155.521 221.127 156.255 221.11 157.143V157.578C221.11 158.527 221.197 159.331 221.373 159.99C221.558 160.649 221.861 161.15 222.283 161.493C222.714 161.836 223.302 162.007 224.05 162.007C224.665 162.007 225.17 161.836 225.566 161.493C225.961 161.15 226.256 160.649 226.449 159.99C226.651 159.322 226.752 158.509 226.752 157.551C226.752 156.11 226.528 155.024 226.08 154.295C225.632 153.565 224.937 153.201 223.997 153.201ZM247.839 157.604C247.839 158.834 247.672 159.924 247.338 160.874C247.013 161.823 246.534 162.627 245.901 163.286C245.277 163.937 244.521 164.429 243.633 164.763C242.755 165.097 241.761 165.264 240.654 165.264C239.617 165.264 238.663 165.097 237.793 164.763C236.932 164.429 236.18 163.937 235.539 163.286C234.906 162.627 234.414 161.823 234.062 160.874C233.719 159.924 233.548 158.834 233.548 157.604C233.548 155.969 233.838 154.585 234.418 153.451C234.998 152.317 235.824 151.456 236.897 150.867C237.969 150.278 239.248 149.984 240.733 149.984C242.113 149.984 243.335 150.278 244.398 150.867C245.47 151.456 246.31 152.317 246.916 153.451C247.531 154.585 247.839 155.969 247.839 157.604ZM237.648 157.604C237.648 158.571 237.754 159.384 237.965 160.043C238.175 160.702 238.505 161.199 238.953 161.533C239.402 161.867 239.986 162.034 240.707 162.034C241.419 162.034 241.994 161.867 242.434 161.533C242.882 161.199 243.207 160.702 243.409 160.043C243.62 159.384 243.726 158.571 243.726 157.604C243.726 156.628 243.62 155.82 243.409 155.178C243.207 154.528 242.882 154.04 242.434 153.715C241.986 153.39 241.401 153.227 240.68 153.227C239.617 153.227 238.843 153.592 238.36 154.321C237.885 155.051 237.648 156.145 237.648 157.604ZM259.658 149.984C259.86 149.984 260.093 149.997 260.357 150.023C260.629 150.041 260.849 150.067 261.016 150.103L260.713 153.873C260.581 153.829 260.392 153.798 260.146 153.781C259.908 153.754 259.702 153.741 259.526 153.741C259.008 153.741 258.502 153.807 258.01 153.939C257.527 154.071 257.091 154.286 256.705 154.585C256.318 154.875 256.01 155.262 255.782 155.745C255.562 156.22 255.452 156.804 255.452 157.499V165H251.431V150.261H254.477L255.07 152.739H255.268C255.558 152.238 255.918 151.781 256.349 151.368C256.788 150.946 257.285 150.612 257.839 150.366C258.401 150.111 259.008 149.984 259.658 149.984ZM270.172 162.06C270.611 162.06 271.037 162.016 271.45 161.928C271.872 161.84 272.29 161.73 272.703 161.599V164.591C272.272 164.785 271.736 164.943 271.094 165.066C270.462 165.198 269.767 165.264 269.011 165.264C268.132 165.264 267.341 165.123 266.638 164.842C265.944 164.552 265.395 164.055 264.99 163.352C264.595 162.64 264.397 161.651 264.397 160.386V153.28H262.472V151.579L264.687 150.234L265.847 147.123H268.418V150.261H272.545V153.28H268.418V160.386C268.418 160.948 268.576 161.37 268.893 161.651C269.218 161.924 269.644 162.06 270.172 162.06ZM289.492 150.261V165H286.407L285.866 163.115H285.655C285.339 163.616 284.943 164.024 284.469 164.341C283.994 164.657 283.471 164.89 282.9 165.04C282.329 165.189 281.735 165.264 281.12 165.264C280.066 165.264 279.147 165.079 278.365 164.71C277.583 164.332 276.972 163.748 276.532 162.957C276.102 162.166 275.886 161.137 275.886 159.872V150.261H279.907V158.87C279.907 159.924 280.096 160.72 280.474 161.256C280.852 161.792 281.454 162.06 282.28 162.06C283.098 162.06 283.739 161.875 284.205 161.506C284.671 161.128 284.996 160.579 285.181 159.858C285.374 159.129 285.471 158.241 285.471 157.195V150.261H289.492ZM302.352 149.984C303.925 149.984 305.191 150.415 306.149 151.276C307.107 152.128 307.586 153.5 307.586 155.389V165H303.565V156.391C303.565 155.336 303.372 154.541 302.985 154.005C302.607 153.469 302.009 153.201 301.192 153.201C299.962 153.201 299.122 153.618 298.674 154.453C298.226 155.288 298.002 156.492 298.002 158.065V165H293.981V150.261H297.052L297.593 152.146H297.817C298.133 151.636 298.525 151.223 298.99 150.907C299.465 150.59 299.988 150.357 300.559 150.208C301.139 150.059 301.737 149.984 302.352 149.984ZM316.017 150.261V165H311.996V150.261H316.017ZM314.013 144.486C314.61 144.486 315.125 144.627 315.555 144.908C315.986 145.181 316.201 145.695 316.201 146.451C316.201 147.198 315.986 147.716 315.555 148.006C315.125 148.288 314.61 148.428 314.013 148.428C313.406 148.428 312.888 148.288 312.457 148.006C312.035 147.716 311.824 147.198 311.824 146.451C311.824 145.695 312.035 145.181 312.457 144.908C312.888 144.627 313.406 144.486 314.013 144.486ZM326.728 162.06C327.168 162.06 327.594 162.016 328.007 161.928C328.429 161.84 328.846 161.73 329.259 161.599V164.591C328.829 164.785 328.293 164.943 327.651 165.066C327.018 165.198 326.324 165.264 325.568 165.264C324.689 165.264 323.898 165.123 323.195 164.842C322.501 164.552 321.951 164.055 321.547 163.352C321.151 162.64 320.954 161.651 320.954 160.386V153.28H319.029V151.579L321.244 150.234L322.404 147.123H324.975V150.261H329.101V153.28H324.975V160.386C324.975 160.948 325.133 161.37 325.449 161.651C325.775 161.924 326.201 162.06 326.728 162.06ZM336.543 150.261V165H332.522V150.261H336.543ZM334.539 144.486C335.137 144.486 335.651 144.627 336.082 144.908C336.512 145.181 336.728 145.695 336.728 146.451C336.728 147.198 336.512 147.716 336.082 148.006C335.651 148.288 335.137 148.428 334.539 148.428C333.933 148.428 333.414 148.288 332.983 148.006C332.562 147.716 332.351 147.198 332.351 146.451C332.351 145.695 332.562 145.181 332.983 144.908C333.414 144.627 333.933 144.486 334.539 144.486ZM347.123 149.984C348.485 149.984 349.658 150.248 350.643 150.775C351.627 151.293 352.387 152.049 352.923 153.042C353.46 154.036 353.728 155.249 353.728 156.681V158.632H344.222C344.266 159.766 344.605 160.658 345.237 161.309C345.879 161.95 346.767 162.271 347.9 162.271C348.841 162.271 349.702 162.174 350.484 161.981C351.267 161.788 352.071 161.498 352.897 161.111V164.222C352.168 164.583 351.403 164.846 350.603 165.013C349.812 165.18 348.85 165.264 347.716 165.264C346.239 165.264 344.93 164.991 343.787 164.446C342.653 163.901 341.761 163.071 341.111 161.955C340.469 160.838 340.148 159.432 340.148 157.736C340.148 156.013 340.439 154.581 341.019 153.438C341.607 152.287 342.425 151.425 343.471 150.854C344.517 150.274 345.734 149.984 347.123 149.984ZM347.149 152.845C346.367 152.845 345.716 153.095 345.198 153.596C344.688 154.097 344.394 154.884 344.314 155.956H349.957C349.948 155.358 349.838 154.827 349.627 154.361C349.425 153.895 349.118 153.526 348.705 153.253C348.3 152.981 347.782 152.845 347.149 152.845ZM367.55 160.623C367.55 161.625 367.313 162.473 366.838 163.167C366.373 163.853 365.674 164.376 364.742 164.736C363.811 165.088 362.65 165.264 361.262 165.264C360.233 165.264 359.35 165.198 358.612 165.066C357.882 164.934 357.144 164.714 356.397 164.407V161.084C357.197 161.445 358.054 161.744 358.968 161.981C359.891 162.209 360.699 162.324 361.394 162.324C362.176 162.324 362.734 162.209 363.068 161.981C363.411 161.744 363.582 161.436 363.582 161.058C363.582 160.812 363.512 160.592 363.371 160.399C363.239 160.197 362.949 159.973 362.501 159.727C362.053 159.472 361.35 159.142 360.392 158.738C359.469 158.351 358.709 157.96 358.111 157.564C357.522 157.169 357.083 156.703 356.793 156.167C356.511 155.622 356.371 154.932 356.371 154.097C356.371 152.735 356.898 151.711 357.953 151.025C359.016 150.331 360.436 149.984 362.211 149.984C363.125 149.984 363.995 150.076 364.821 150.261C365.656 150.445 366.513 150.74 367.392 151.144L366.179 154.044C365.45 153.728 364.76 153.469 364.109 153.267C363.468 153.064 362.813 152.963 362.145 152.963C361.556 152.963 361.112 153.042 360.814 153.201C360.515 153.359 360.365 153.601 360.365 153.926C360.365 154.163 360.44 154.374 360.589 154.559C360.748 154.743 361.046 154.95 361.486 155.178C361.934 155.398 362.589 155.684 363.45 156.035C364.285 156.378 365.01 156.738 365.626 157.116C366.241 157.485 366.715 157.947 367.049 158.5C367.383 159.045 367.55 159.753 367.55 160.623Z" fill="black"/>
<defs>
<clipPath id="clip0_1665_589">
<rect width="100" height="126" fill="white" transform="translate(0 1)"/>
</clipPath>
</defs>
</svg>
